<mxfile host="app.diagrams.net" modified="2023-09-23T20:03:14.933Z" agent="Mozilla/5.0 (Windows NT 10.0; Win64; x64) AppleWebKit/537.36 (KHTML, like Gecko) Chrome/116.0.0.0 Safari/537.36" etag="0sNrZQSk5x7otwrNcNB1" version="21.8.1" type="github">
  <diagram name="Sayfa -1" id="Vv1Sxzx7zvdT6i2eCTOG">
    <mxGraphModel dx="1049" dy="614" grid="1" gridSize="10" guides="1" tooltips="1" connect="1" arrows="1" fold="1" page="1" pageScale="1" pageWidth="827" pageHeight="1169" math="0" shadow="0">
      <root>
        <mxCell id="0" />
        <mxCell id="1" parent="0" />
        <mxCell id="FdAeWcGgC94fJ7UT1NvN-1" value="START" style="ellipse;whiteSpace=wrap;html=1;" vertex="1" parent="1">
          <mxGeometry x="340" y="20" width="150" height="130" as="geometry" />
        </mxCell>
        <mxCell id="FdAeWcGgC94fJ7UT1NvN-2" value="TANIMLA&lt;br&gt;(n,m,toplam)" style="shape=parallelogram;perimeter=parallelogramPerimeter;whiteSpace=wrap;html=1;fixedSize=1;" vertex="1" parent="1">
          <mxGeometry x="310" y="200" width="200" height="130" as="geometry" />
        </mxCell>
        <mxCell id="FdAeWcGgC94fJ7UT1NvN-3" value="TOPLAM=N+M" style="rounded=1;whiteSpace=wrap;html=1;" vertex="1" parent="1">
          <mxGeometry x="325" y="390" width="170" height="110" as="geometry" />
        </mxCell>
        <mxCell id="FdAeWcGgC94fJ7UT1NvN-5" value="EKRANA YAZDIR&lt;br&gt;(TOPLAM)" style="shape=parallelogram;perimeter=parallelogramPerimeter;whiteSpace=wrap;html=1;fixedSize=1;" vertex="1" parent="1">
          <mxGeometry x="315" y="560" width="190" height="120" as="geometry" />
        </mxCell>
        <mxCell id="FdAeWcGgC94fJ7UT1NvN-6" value="" style="endArrow=classic;html=1;rounded=0;exitX=0.5;exitY=1;exitDx=0;exitDy=0;" edge="1" parent="1">
          <mxGeometry width="50" height="50" relative="1" as="geometry">
            <mxPoint x="413" y="340" as="sourcePoint" />
            <mxPoint x="413" y="420" as="targetPoint" />
            <Array as="points">
              <mxPoint x="413" y="410" />
            </Array>
          </mxGeometry>
        </mxCell>
        <mxCell id="FdAeWcGgC94fJ7UT1NvN-7" value="" style="endArrow=classic;html=1;rounded=0;exitX=0.5;exitY=1;exitDx=0;exitDy=0;" edge="1" parent="1">
          <mxGeometry width="50" height="50" relative="1" as="geometry">
            <mxPoint x="414" y="490" as="sourcePoint" />
            <mxPoint x="414" y="570" as="targetPoint" />
            <Array as="points">
              <mxPoint x="414" y="540" />
              <mxPoint x="414" y="560" />
            </Array>
          </mxGeometry>
        </mxCell>
        <mxCell id="FdAeWcGgC94fJ7UT1NvN-8" value="" style="endArrow=classic;html=1;rounded=0;" edge="1" parent="1">
          <mxGeometry width="50" height="50" relative="1" as="geometry">
            <mxPoint x="414.5" y="130" as="sourcePoint" />
            <mxPoint x="414.5" y="210" as="targetPoint" />
            <Array as="points">
              <mxPoint x="414.5" y="200" />
            </Array>
          </mxGeometry>
        </mxCell>
        <mxCell id="FdAeWcGgC94fJ7UT1NvN-9" value="STOP" style="ellipse;whiteSpace=wrap;html=1;" vertex="1" parent="1">
          <mxGeometry x="340" y="770" width="120" height="80" as="geometry" />
        </mxCell>
        <mxCell id="FdAeWcGgC94fJ7UT1NvN-10" value="" style="endArrow=classic;html=1;rounded=0;exitX=0.426;exitY=1;exitDx=0;exitDy=0;exitPerimeter=0;entryX=0.5;entryY=0;entryDx=0;entryDy=0;" edge="1" parent="1" source="FdAeWcGgC94fJ7UT1NvN-5" target="FdAeWcGgC94fJ7UT1NvN-9">
          <mxGeometry width="50" height="50" relative="1" as="geometry">
            <mxPoint x="390" y="770" as="sourcePoint" />
            <mxPoint x="440" y="720" as="targetPoint" />
          </mxGeometry>
        </mxCell>
      </root>
    </mxGraphModel>
  </diagram>
</mxfile>
